<?xml version="1.0" encoding="UTF-8" standalone="no"?>
<!-- Created with Inkscape (http://www.inkscape.org/) -->

<svg
   width="146.05788mm"
   height="30.778543mm"
   viewBox="0 0 146.05788 30.778543"
   version="1.1"
   id="svg1"
   xml:space="preserve"
   xmlns:inkscape="http://www.inkscape.org/namespaces/inkscape"
   xmlns:sodipodi="http://sodipodi.sourceforge.net/DTD/sodipodi-0.dtd"
   xmlns="http://www.w3.org/2000/svg"
   xmlns:svg="http://www.w3.org/2000/svg"><sodipodi:namedview
     id="namedview1"
     pagecolor="#ffffff"
     bordercolor="#000000"
     borderopacity="0.25"
     inkscape:showpageshadow="2"
     inkscape:pageopacity="0.0"
     inkscape:pagecheckerboard="0"
     inkscape:deskcolor="#d1d1d1"
     inkscape:document-units="mm" /><defs
     id="defs1" /><g
     inkscape:label="Layer 1"
     inkscape:groupmode="layer"
     id="layer1"
     transform="translate(397.36094,134.62854)"><g
       id="g18"><g
         id="g17"
         transform="matrix(0.26458333,0,0,0.26458333,-397.36094,-133.48333)">&#10;	<g
   id="g16">&#10;		<path
   class="st0"
   d="M 100.3,11.7 C 89.8,1.2 74.6,0 56,0 37.4,0 22.2,1.2 11.6,11.7 1,22.2 0,37.5 0,56 0,74.5 1.1,89.8 11.6,100.3 22.1,110.8 37.4,112 56,112 74.6,112 89.8,110.9 100.4,100.4 111,89.9 112,74.6 112,56 112,37.4 110.9,22.2 100.3,11.7 Z M 42.5,33.9 v 44.4 c 0,0.9 0,1.9 -0.1,2.8 -0.1,0.7 -0.4,1.4 -0.8,2.1 -0.7,1.4 -2.8,2.2 -6.2,2.2 -3.7,0 -5.9,-1 -6.6,-3 -0.4,-1.3 -0.5,-2.7 -0.5,-4.1 V 33.7 c 0,-0.9 0,-1.8 0.1,-2.7 0.1,-0.7 0.4,-1.5 0.8,-2.1 0.8,-1.4 2.8,-2.2 6.2,-2.2 3.7,0 6,1 6.6,3 0.4,1.4 0.6,2.8 0.5,4.2 z m 20.5,0 v 44.4 c 0,0.9 0,1.9 -0.1,2.8 -0.1,0.7 -0.4,1.4 -0.8,2.1 -0.7,1.4 -2.8,2.2 -6.2,2.2 -3.7,0 -5.9,-1 -6.6,-3 -0.4,-1.3 -0.5,-2.7 -0.5,-4.1 V 33.8 c 0,-0.9 0,-1.8 0.1,-2.7 0.1,-0.7 0.4,-1.5 0.8,-2.1 0.8,-1.4 2.8,-2.2 6.2,-2.2 3.7,0 6,1 6.6,3 0.5,1.3 0.6,2.7 0.5,4.1 z m 20.6,0 v 44.4 c 0,0.9 0,1.9 -0.1,2.8 -0.1,0.7 -0.4,1.4 -0.8,2.1 -0.7,1.4 -2.8,2.2 -6.2,2.2 -3.7,0 -5.9,-1 -6.6,-3 -0.4,-1.3 -0.5,-2.7 -0.5,-4.1 V 33.7 c 0,-0.9 0,-1.8 0.1,-2.7 0.1,-0.7 0.4,-1.5 0.8,-2.1 0.8,-1.4 2.8,-2.2 6.2,-2.2 3.7,0 5.9,1 6.6,3 0.5,1.4 0.6,2.8 0.5,4.2 z"
   id="path9" />&#10;		<path
   class="st1"
   d="m 140.4,27.8 h 14.1 v 6.4 c 2.2,-2.5 4.9,-4.5 8,-5.9 3,-1.3 6.3,-2 9.6,-2 3.3,0 6.6,0.8 9.5,2.6 2.9,1.8 5.3,4.4 6.8,7.5 2.1,-3.1 4.9,-5.7 8.2,-7.5 3.3,-1.7 6.9,-2.6 10.6,-2.6 3.7,-0.1 7.3,0.9 10.5,2.8 2.9,1.7 5.2,4.2 6.5,7.3 1.3,3 2,7.9 2,14.6 V 83.9 H 212 V 55.5 c 0,-6.4 -0.8,-10.7 -2.4,-12.9 -1.6,-2.3 -4.3,-3.5 -7.1,-3.4 -2.3,0 -4.6,0.7 -6.5,2.1 -2,1.4 -3.4,3.4 -4.3,5.7 -0.9,2.4 -1.4,6.3 -1.4,11.7 V 84 H 176.1 V 56.8 c 0,-5 -0.4,-8.7 -1.1,-10.9 -0.6,-2 -1.7,-3.7 -3.3,-5 -1.6,-1.1 -3.5,-1.7 -5.4,-1.7 -2.3,0 -4.5,0.7 -6.4,2.1 -2,1.5 -3.5,3.5 -4.3,5.9 -1,2.5 -1.4,6.5 -1.4,11.9 v 25 H 140.1 V 27.8 Z"
   id="path10" />&#10;		<path
   class="st1"
   d="m 245.2,4.7 c 2.4,0 4.7,0.9 6.4,2.7 1.7,1.7 2.7,4.1 2.6,6.5 0,2.4 -0.9,4.7 -2.6,6.4 -1.6,1.7 -3.9,2.7 -6.3,2.7 -2.4,0 -4.7,-1 -6.4,-2.7 -1.7,-1.7 -2.7,-4.1 -2.6,-6.6 0,-2.4 0.9,-4.7 2.6,-6.3 1.6,-1.7 3.9,-2.7 6.3,-2.7 z m -7,23.1 h 14.1 v 56.1 h -14.1 z"
   id="path11" />&#10;		<path
   class="st1"
   d="m 260,27.8 h 16.4 l 11.1,15.3 11,-15.3 h 16.1 l -19,26.4 21.4,29.7 H 300.7 L 287.3,65.5 274,83.9 h -16 l 21.3,-29.5 z"
   id="path12" />&#10;		&#10;		&#10;		&#10;		&#10;	</g>&#10;</g><text
         xml:space="preserve"
         style="font-size:38.3633px;font-family:Calibri;-inkscape-font-specification:Calibri;fill:#a15589;fill-opacity:1;stroke:none;stroke-width:0.485474"
         x="-311.11459"
         y="-110.38923"
         id="text17"><tspan
           sodipodi:role="line"
           id="tspan17"
           style="font-style:normal;font-variant:normal;font-weight:bold;font-stretch:normal;font-size:38.3633px;font-family:Calibri;-inkscape-font-specification:'Calibri Bold';fill:#a15589;fill-opacity:1;stroke:none;stroke-width:1.9419"
           x="-311.11459"
           y="-110.38923">DBs</tspan></text></g></g><style
     type="text/css"
     id="style1">&#10;	.st0{fill-rule:evenodd;clip-rule:evenodd;fill:#FF0066;}&#10;	.st1{fill:#FF0066;}&#10;</style></svg>
