<?xml version="1.0" encoding="UTF-8" standalone="no"?>
<svg
   xmlns:dc="http://purl.org/dc/elements/1.1/"
   xmlns:cc="http://creativecommons.org/ns#"
   xmlns:rdf="http://www.w3.org/1999/02/22-rdf-syntax-ns#"
   xmlns:svg="http://www.w3.org/2000/svg"
   xmlns="http://www.w3.org/2000/svg"
   xmlns:sodipodi="http://sodipodi.sourceforge.net/DTD/sodipodi-0.dtd"
   xmlns:inkscape="http://www.inkscape.org/namespaces/inkscape"
   version="1.1"
   id="Layer_1"
   x="0px"
   y="0px"
   viewBox="0 0 325 325"
   xml:space="preserve"
   sodipodi:docname="mixcore-logo-green-mini.svg"
   width="325"
   height="325"
   inkscape:version="1.0.1 (3bc2e813f5, 2020-09-07)"><metadata
   id="metadata35"><rdf:RDF><cc:Work
       rdf:about=""><dc:format>image/svg+xml</dc:format><dc:type
         rdf:resource="http://purl.org/dc/dcmitype/StillImage" /><dc:title>mixcore-logo-green_1</dc:title></cc:Work></rdf:RDF></metadata><defs
   id="defs33" /><sodipodi:namedview
   pagecolor="#ffffff"
   bordercolor="#666666"
   borderopacity="1"
   objecttolerance="10"
   gridtolerance="10"
   guidetolerance="10"
   inkscape:pageopacity="0"
   inkscape:pageshadow="2"
   inkscape:window-width="1304"
   inkscape:window-height="745"
   id="namedview31"
   showgrid="false"
   inkscape:zoom="0.3323764"
   inkscape:cx="957.02992"
   inkscape:cy="643.35821"
   inkscape:window-x="-8"
   inkscape:window-y="-8"
   inkscape:window-maximized="1"
   inkscape:current-layer="Layer_1" />
<style
   type="text/css"
   id="style2">
	.st0{fill:#729F00;}
</style>
<title
   id="title4">mixcore-logo-green_1</title>
<g
   id="Layer_2_1_"
   transform="translate(2.5231989e-6,3.0086333)">
	<g
   id="mixcore">
		<path
   class="st0"
   d="m 405.4,86 h 40 v 18.3 c 6.3,-7.1 14.1,-12.9 22.8,-16.8 8.6,-3.8 17.9,-5.7 27.3,-5.6 9.5,-0.1 18.9,2.4 27,7.3 8,4.9 14.5,12 19.3,21.4 5.9,-9 13.9,-16.3 23.3,-21.4 9.3,-4.9 19.7,-7.4 30.3,-7.3 11.3,0 21.3,2.6 29.9,7.9 8.2,4.8 14.7,12 18.6,20.7 3.8,8.5 5.6,22.3 5.6,41.5 v 93.4 h -40.3 v -80.9 c 0,-18.1 -2.2,-30.3 -6.7,-36.7 -4.5,-6.4 -11.2,-9.6 -20.2,-9.6 -6.6,-0.1 -13,2 -18.4,5.9 -5.5,4.1 -9.7,9.7 -12.1,16.2 -2.7,6.9 -4,17.9 -4,33.2 v 71.9 h -40.2 v -77.2 c 0,-14.3 -1.1,-24.6 -3.2,-31 -2.1,-6.4 -5.3,-11.2 -9.5,-14.3 -4.4,-3.2 -9.8,-4.8 -15.3,-4.7 -6.5,0 -12.9,2 -18.1,5.9 -5.6,4.2 -9.9,10 -12.2,16.6 -2.7,7.1 -4,18.4 -4,33.7 v 70.9 h -40 z"
   id="path6" />
		<path
   class="st0"
   d="m 703.3,20.4 c 6.8,-0.1 13.3,2.7 18,7.6 4.9,4.9 7.6,11.5 7.5,18.5 0.1,6.8 -2.6,13.4 -7.5,18.2 -4.6,4.9 -11.1,7.6 -17.8,7.6 -6.9,0.1 -13.5,-2.7 -18.2,-7.7 -4.9,-4.9 -7.7,-11.7 -7.5,-18.7 -0.1,-6.8 2.6,-13.3 7.4,-18 4.8,-4.9 11.3,-7.7 18.1,-7.5 z m -20,65.6 h 40 v 159.4 h -40 z"
   id="path8" />
		<path
   class="st0"
   d="m 745.3,86 h 46.4 l 31.5,43.4 31.3,-43.4 h 45.7 l -54.1,75 61.2,84.4 H 860.9 L 823,193.1 785.3,245.4 h -45.7 l 60.5,-83.8 z"
   id="path10" />
		<path
   class="st0"
   d="m 1083.7,118.2 -33.3,18.3 c -6.3,-6.6 -12.4,-11.1 -18.6,-13.6 -6.8,-2.7 -14.1,-4 -21.5,-3.8 -15,0 -27.1,4.5 -36.3,13.4 -9.2,8.9 -13.9,20.4 -13.9,34.3 0,13.6 4.4,24.6 13.3,33.2 8.9,8.6 20.6,12.9 35,12.9 17.9,0 31.8,-6.1 41.8,-18.3 l 31.5,21.6 c -17.1,22.2 -41.2,33.3 -72.4,33.3 -28,0 -50,-8.3 -65.8,-24.9 -15.9,-16.6 -23.8,-36 -23.8,-58.3 -0.2,-30.7 16.7,-59 43.9,-73.3 13.8,-7.4 29.3,-11.1 46.4,-11.1 15.8,0 30,3.1 42.6,9.4 12.6,6.2 23.2,15.4 31.1,26.9 z"
   id="path12" />
		<path
   class="st0"
   d="m 1194.5,81.9 c 14.9,0 29.5,3.9 42.4,11.3 12.9,7.2 23.6,17.8 31,30.6 7.4,12.7 11.2,27.1 11.1,41.7 0.1,14.8 -3.8,29.4 -11.2,42.2 -7.2,12.8 -17.8,23.4 -30.5,30.7 -13,7.4 -27.7,11.2 -42.6,11 -22.9,0 -42.4,-8.1 -58.5,-24.4 -16.2,-16.3 -24.2,-36 -24.2,-59.3 0,-24.9 9.1,-45.6 27.4,-62.3 15.9,-14.3 34.3,-21.5 55.1,-21.5 z m 0.7,37.6 c -12.4,0 -22.8,4.3 -31,13 -8.2,8.7 -12.4,19.7 -12.4,33.2 0,13.9 4.1,25.1 12.3,33.7 8.2,8.6 18.5,12.9 31,12.9 12.5,0 22.9,-4.3 31.3,-13 8.3,-8.7 12.5,-19.8 12.5,-33.5 0,-13.7 -4.1,-24.8 -12.3,-33.3 -8.3,-8.6 -18.7,-12.9 -31.4,-13 z"
   id="path14" />
		<path
   class="st0"
   d="m 1302.3,86 h 34.3 v 20.1 c 3.7,-7.9 8.6,-13.9 14.8,-18 6,-4 13,-6.2 20.2,-6.2 5.7,0.1 11.2,1.5 16.3,4.1 l -12.5,34.4 c -4.7,-2.3 -8.5,-3.5 -11.6,-3.5 -6.1,0 -11.3,3.8 -15.6,11.4 -4.3,7.6 -6.4,22.6 -6.4,44.8 l 0.2,7.8 v 64.4 h -39.7 z"
   id="path16" />
		<path
   class="st0"
   d="m 1567.3,177.2 h -128.5 c 1.9,11.3 6.8,20.3 14.9,27 8.1,6.7 18.3,10 30.8,10 14.4,0.2 28.3,-5.4 38.5,-15.7 l 33.7,15.8 c -8.4,11.9 -18.5,20.7 -30.2,26.4 -11.7,5.7 -25.6,8.6 -41.8,8.6 -25,0 -45.4,-7.9 -61.1,-23.6 -15.7,-15.8 -23.6,-35.5 -23.6,-59.3 0,-24.3 7.8,-44.5 23.5,-60.6 15.7,-16.1 35.3,-24.1 59,-24.1 25.1,0 45.5,8 61.2,24.1 15.7,16.1 23.6,37.3 23.6,63.6 z m -40,-31.5 c -2.6,-8.8 -8.1,-16.5 -15.6,-21.7 -7.9,-5.6 -17.4,-8.5 -27.1,-8.3 -10.5,-0.2 -20.9,3.1 -29.3,9.4 -5.3,3.9 -10.2,10.8 -14.7,20.7 h 86.7 z"
   id="path18" />
		<path
   class="st0"
   d="M 0,325 V 0 H 325 V 325 Z M 17.9,306 H 306 V 18.1 H 18 Z"
   id="path20" />
		<path
   class="st0"
   d="M 107.4,54.8 V 269.4 H 54.6 V 54.8 Z"
   id="path22" />
		<path
   class="st0"
   d="m 135.7,54.5 h 52.6 v 214.8 h -52.6 z"
   id="path24" />
		<path
   class="st0"
   d="M 269.3,269.5 H 216.7 V 54.7 h 52.6 z"
   id="path26" />
	</g>
</g>
</svg>
