<svg width="70" height="70" viewBox="0 0 70 70" fill="none" xmlns="http://www.w3.org/2000/svg">
<circle cx="35" cy="35" r="35" fill="#91B1C7"/>
<path d="M42.7976 32.2958C48.2844 27.9944 49.2341 20.0842 44.929 14.6078C40.6239 9.13143 32.6257 8.20822 27.1389 12.4886C21.652 16.769 20.6812 24.7212 25.0074 30.1766C25.6194 30.9529 26.3369 31.6663 27.1389 32.2958C19.9215 35.1704 14.8778 41.7798 14.0126 49.4593C13.886 50.6133 14.7301 51.6624 15.8908 51.7883C17.0515 51.9142 18.1066 51.0749 18.2332 49.9209C19.2673 40.7097 27.6242 34.0793 36.8886 35.1074C44.718 35.9887 50.9012 42.1365 51.7876 49.9209C51.9142 50.991 52.8217 51.7883 53.8979 51.7883H54.1301C55.2907 51.6624 56.1138 50.6343 55.9872 49.4802C55.1219 41.7588 50.036 35.1494 42.7976 32.2958ZM34.9682 30.8061C30.3044 30.8061 26.5269 27.0502 26.5269 22.4132C26.5269 17.7761 30.3044 14.0203 34.9682 14.0203C39.632 14.0203 43.4096 17.7761 43.4096 22.4132C43.4096 27.0502 39.632 30.8061 34.9682 30.8061Z" fill="#F4F7F8"/>
</svg>
