<?xml version="1.0" encoding="UTF-8" standalone="no"?>
<svg
   width="36"
   height="36"
   viewBox="0 0 36 36"
   fill="none"
   version="1.1"
   id="svg1800"
   sodipodi:docname="mix-logo-square-fill.svg"
   xml:space="preserve"
   inkscape:export-filename="mix-logo-square-fill.svg"
   inkscape:export-xdpi="96"
   inkscape:export-ydpi="96"
   inkscape:version="1.3 (0e150ed6c4, 2023-07-21)"
   xmlns:inkscape="http://www.inkscape.org/namespaces/inkscape"
   xmlns:sodipodi="http://sodipodi.sourceforge.net/DTD/sodipodi-0.dtd"
   xmlns="http://www.w3.org/2000/svg"
   xmlns:svg="http://www.w3.org/2000/svg"><sodipodi:namedview
     id="namedview1802"
     pagecolor="#ffffff"
     bordercolor="#000000"
     borderopacity="0.25"
     inkscape:showpageshadow="2"
     inkscape:pageopacity="0.0"
     inkscape:pagecheckerboard="0"
     inkscape:deskcolor="#d1d1d1"
     showgrid="false"
     inkscape:zoom="3.09375"
     inkscape:cx="60.282828"
     inkscape:cy="59.636364"
     inkscape:window-width="1920"
     inkscape:window-height="1129"
     inkscape:window-x="-8"
     inkscape:window-y="-8"
     inkscape:window-maximized="1"
     inkscape:current-layer="g2308" /><defs
     id="defs1798" /><style
     type="text/css"
     id="style2208">&#10;	.st0{fill-rule:evenodd;clip-rule:evenodd;fill:#FF0066;}&#10;	.st1{fill:#FF0066;}&#10;</style><g
     id="Layer_2_1_"
     transform="matrix(0.32142857,0,0,0.32142857,-173.06438,-44.989669)">&#10;	<g
   id="g2308"><rect
     style="fill:#ffffff;stroke:#ffffff;stroke-width:0.311111;stroke-opacity:1"
     id="rect2304"
     width="64.621704"
     height="64.071732"
     x="563.96033"
     y="164.79025" /><path
     class="st0"
     d="m 638.72253,151.66786 c -10.5,-10.5 -25.7,-11.7 -44.3,-11.7 -18.6,0 -33.8,1.2 -44.4,11.7 -10.6,10.5 -11.6,25.8 -11.6,44.3 0,18.5 1.1,33.8 11.6,44.3 10.5,10.5 25.8,11.7 44.4,11.7 18.6,0 33.8,-1.1 44.4,-11.6 10.6,-10.5 11.6,-25.8 11.6,-44.4 0,-18.6 -1.1,-33.8 -11.7,-44.3 z m -57.8,22.2 v 44.4 c 0,0.9 0,1.9 -0.1,2.8 -0.1,0.7 -0.4,1.4 -0.8,2.1 -0.7,1.4 -2.8,2.2 -6.2,2.2 -3.7,0 -5.9,-1 -6.6,-3 -0.4,-1.3 -0.5,-2.7 -0.5,-4.1 v -44.6 c 0,-0.9 0,-1.8 0.1,-2.7 0.1,-0.7 0.4,-1.5 0.8,-2.1 0.8,-1.4 2.8,-2.2 6.2,-2.2 3.7,0 6,1 6.6,3 0.4,1.4 0.6,2.8 0.5,4.2 z m 20.5,0 v 44.4 c 0,0.9 0,1.9 -0.1,2.8 -0.1,0.7 -0.4,1.4 -0.8,2.1 -0.7,1.4 -2.8,2.2 -6.2,2.2 -3.7,0 -5.9,-1 -6.6,-3 -0.4,-1.3 -0.5,-2.7 -0.5,-4.1 v -44.5 c 0,-0.9 0,-1.8 0.1,-2.7 0.1,-0.7 0.4,-1.5 0.8,-2.1 0.8,-1.4 2.8,-2.2 6.2,-2.2 3.7,0 6,1 6.6,3 0.5,1.3 0.6,2.7 0.5,4.1 z m 20.6,0 v 44.4 c 0,0.9 0,1.9 -0.1,2.8 -0.1,0.7 -0.4,1.4 -0.8,2.1 -0.7,1.4 -2.8,2.2 -6.2,2.2 -3.7,0 -5.9,-1 -6.6,-3 -0.4,-1.3 -0.5,-2.7 -0.5,-4.1 v -44.6 c 0,-0.9 0,-1.8 0.1,-2.7 0.1,-0.7 0.4,-1.5 0.8,-2.1 0.8,-1.4 2.8,-2.2 6.2,-2.2 3.7,0 5.9,1 6.6,3 0.5,1.4 0.6,2.8 0.5,4.2 z"
     id="path2210"
     style="fill:#505ac9;fill-opacity:1" /></g>&#10;</g></svg>
